<svg width="396" height="396" viewBox="0 0 396 396" fill="none" xmlns="http://www.w3.org/2000/svg">
<path fill-rule="evenodd" clip-rule="evenodd" d="M1 198.5V315H25H49V261.333C49 231.817 49.194 207.861 49.431 208.098C49.824 208.491 51.622 216.599 55.506 235.5C56.297 239.35 57.14 243.4 57.378 244.5C57.617 245.6 58.057 247.625 58.356 249C58.655 250.375 59.584 254.425 60.421 258C61.258 261.575 62.182 266.075 62.475 268C62.767 269.925 64.563 278.475 66.466 287C68.369 295.525 70.162 303.85 70.45 305.5C70.738 307.15 71.349 309.85 71.808 311.5L72.643 314.5L95.688 314.768L118.732 315.036L119.355 311.768C119.698 309.971 120.462 306.25 121.053 303.5C121.644 300.75 122.339 297.375 122.597 296C122.854 294.625 123.988 289.225 125.117 284C127.523 272.861 132.446 249.487 134.488 239.5C138.408 220.335 141.019 208.648 141.484 208.183C141.768 207.899 142 231.817 142 261.333V315H164.5C184.056 315 187 314.799 187 313.466C187 312.072 181.914 287.207 176.985 264.5C175.91 259.55 169.375 228.5 162.462 195.5C155.549 162.5 147.358 123.463 144.259 108.75L138.623 82H132.379C127.304 82 126.034 82.328 125.597 83.75C125.114 85.322 119.55 110.866 118.365 116.95C118.103 118.298 117.193 122.573 116.343 126.45C115.492 130.328 114.188 136.547 113.444 140.271C112.701 143.995 111.842 147.447 111.536 147.942C111.23 148.437 110.814 150.115 110.613 151.671C110.16 155.166 99.182 206.74 98.303 209.5C97.539 211.901 96.978 210.041 93.483 193.5C85.496 155.699 80.927 134.691 80.566 134.106C80.337 133.737 79.897 131.277 79.587 128.64C79.276 126.003 78.802 123.488 78.531 123.05C78.261 122.613 76.642 115.785 74.934 107.877C73.226 99.97 71.715 93.05 71.577 92.5C71.44 91.95 70.977 89.362 70.55 86.75L69.773 82H35.386H1V198.5Z" fill="white"/>
<path fill-rule="evenodd" clip-rule="evenodd" d="M0 198.517V316.035L24.75 315.767L49.5 315.5L50 264C50.275 235.675 50.201 211.375 49.836 210C49.471 208.625 49.133 231.688 49.086 261.25L49 315H25H1V198.513V82.026L35.75 81.75L70.5 81.473L35.25 81.237L0 81V198.517ZM125.079 82.75C125.126 83.795 125.361 83.997 125.662 83.25C125.99 82.438 128.348 82 132.395 82H138.623L144.259 108.75C147.358 123.463 155.549 162.5 162.462 195.5C169.375 228.5 175.91 259.55 176.985 264.5C181.914 287.207 187 312.072 187 313.466C187 314.799 184.056 315 164.5 315H142L141.937 261.25C141.878 211.824 141.498 204.356 139.605 215.5C139.119 218.363 139.216 219.074 139.948 218C140.65 216.969 140.974 232.063 140.985 266.259L141 316.019L190.742 315.759L240.485 315.5L241.758 309C243.594 299.635 247.893 278.777 250.416 267C251.3 262.875 252.656 256.125 253.43 252C254.204 247.875 255.782 240 256.936 234.5C258.091 229 260.161 218.875 261.537 212C264.16 198.894 265.828 191.516 266.738 189C267.401 187.166 267.551 187.787 274.088 219.5C276.922 233.25 279.798 247.2 280.479 250.5C281.159 253.8 283.095 263.25 284.78 271.5C286.465 279.75 288.125 287.85 288.468 289.5C288.811 291.15 289.529 294.75 290.063 297.5C290.597 300.25 291.451 304.3 291.961 306.5C292.47 308.7 293.148 311.745 293.467 313.266L294.046 316.033L320.733 315.766L347.419 315.5L348.204 312C349.933 304.299 352.258 293.131 353.513 286.5C354.242 282.65 355.091 278.825 355.4 278C355.709 277.175 356.613 272.9 357.41 268.5C358.206 264.1 360.287 253.975 362.035 246C363.782 238.025 365.805 228.575 366.531 225C367.257 221.425 370.168 207.475 373 194C375.832 180.525 378.764 166.575 379.515 163C380.267 159.425 381.573 153.35 382.418 149.5C383.264 145.65 384.866 137.775 385.978 132C387.091 126.225 388.652 118.575 389.447 115C393.185 98.197 396 84.338 396 82.733C396 81.083 394.326 80.983 370.772 81.233L345.545 81.5L344.374 88C343.731 91.575 342.448 98.325 341.525 103C340.601 107.675 339.233 114.65 338.485 118.5C337.736 122.35 336.381 129.325 335.472 134C334.564 138.675 332.993 147 331.981 152.5C330.97 158 329.47 165.875 328.648 170C327.827 174.125 326.394 181.325 325.463 186C324.532 190.675 323.548 195.963 323.276 197.75C322.684 201.641 321 202.097 321 198.366C321 196.917 320.558 194.105 320.018 192.116C319.478 190.127 318.106 183.325 316.97 177C313.266 156.393 310.904 143.714 308.49 131.5C307.186 124.9 305.164 114.325 303.997 108C302.829 101.675 301.227 93.256 300.437 89.292C299.647 85.328 299 81.84 299 81.542C299 81.244 285.745 81 269.545 81H240.091L239.445 84.75C239.089 86.813 238.127 91.875 237.307 96C236.486 100.125 235.418 105.75 234.934 108.5C234.45 111.25 233.36 117.1 232.512 121.5C230.953 129.598 227.91 145.7 225.521 158.5C224.802 162.35 223.491 169.213 222.607 173.75C221.723 178.287 220.334 185.666 219.521 190.146C217.179 203.044 216.838 203.438 215.317 195C211.073 171.46 209.848 164.774 208.54 158C207.744 153.875 206.362 146.675 205.469 142C203.647 132.466 201.93 123.541 199.503 111C198.599 106.325 197.216 98.675 196.431 94C195.647 89.325 194.77 84.487 194.483 83.25L193.962 81H159.481C127.279 81 125.005 81.116 125.079 82.75ZM70.158 85C70.158 86.375 70.385 86.938 70.662 86.25C70.94 85.563 70.94 84.438 70.662 83.75C70.385 83.063 70.158 83.625 70.158 85ZM122.5 93C122.116 95.274 122.011 97.345 122.268 97.601C122.524 97.857 123.034 96.192 123.4 93.9C123.766 91.608 123.871 89.538 123.632 89.299C123.394 89.06 122.884 90.726 122.5 93ZM72.399 96.451C72.967 98.899 73.604 100.729 73.815 100.518C74.462 99.872 72.872 92 72.095 92C71.695 92 71.831 94.003 72.399 96.451ZM120.098 103.98C119.494 106.795 119.045 109.864 119.1 110.799C119.156 111.735 119.832 109.614 120.603 106.086C121.375 102.559 121.824 99.49 121.601 99.267C121.378 99.044 120.701 101.165 120.098 103.98ZM74.106 103C74.094 103.825 74.736 106.975 75.533 110L76.981 115.5L76.409 110.618C75.837 105.726 74.146 100.135 74.106 103ZM77.141 117.5C77.141 118.6 77.527 120.4 78 121.5L78.859 123.5V121.5C78.859 120.4 78.473 118.6 78 117.5L77.141 115.5V117.5ZM116.539 120.592C115.6 126.847 116.376 127.118 117.635 120.974C118.195 118.238 118.333 116 117.94 116C117.548 116 116.917 118.066 116.539 120.592ZM79.668 130C80.619 135.253 82.09 138.304 81.355 133.5C81.019 131.3 80.359 128.825 79.889 128C79.37 127.088 79.283 127.873 79.668 130ZM114.72 128.332C114.324 129.339 114.029 131.139 114.063 132.332C114.124 134.389 114.177 134.375 115.101 132.062C115.636 130.722 115.932 128.922 115.758 128.062C115.497 126.777 115.313 126.825 114.72 128.332ZM112.091 140.955C111.345 144.318 110.98 147.314 111.28 147.614C111.947 148.28 114.292 137.375 113.799 135.898C113.606 135.318 112.837 137.593 112.091 140.955ZM82.158 140C82.158 141.375 82.385 141.938 82.662 141.25C82.94 140.563 82.94 139.438 82.662 138.75C82.385 138.063 82.158 138.625 82.158 140ZM83.158 145C83.158 146.375 83.385 146.938 83.662 146.25C83.94 145.563 83.94 144.438 83.662 143.75C83.385 143.063 83.158 143.625 83.158 145ZM85.218 153.5C85.228 154.6 85.58 156.85 86 158.5C86.686 161.195 86.765 161.246 86.782 159C86.792 157.625 86.44 155.375 86 154C85.373 152.041 85.203 151.933 85.218 153.5ZM109.624 153.539C109.281 154.432 109.039 155.914 109.086 156.832C109.133 157.749 109.568 157.173 110.053 155.55C110.996 152.394 110.662 150.832 109.624 153.539ZM87.106 163C87.094 163.825 87.736 166.975 88.533 170L89.981 175.5L89.409 170.618C88.837 165.726 87.146 160.135 87.106 163ZM107.158 165C107.158 166.375 107.385 166.938 107.662 166.25C107.94 165.563 107.94 164.438 107.662 163.75C107.385 163.063 107.158 163.625 107.158 165ZM106.158 170C106.158 171.375 106.385 171.938 106.662 171.25C106.94 170.563 106.94 169.438 106.662 168.75C106.385 168.063 106.158 168.625 106.158 170ZM90.141 177.5C90.141 178.6 90.527 180.4 91 181.5L91.859 183.5V181.5C91.859 180.4 91.473 178.6 91 177.5L90.141 175.5V177.5ZM103.5 181C103.116 183.274 103.011 185.345 103.268 185.601C103.524 185.857 104.034 184.192 104.4 181.9C104.766 179.608 104.871 177.538 104.632 177.299C104.394 177.06 103.884 178.726 103.5 181ZM92.195 186.5C92.215 188.15 92.439 188.704 92.693 187.731C92.947 186.758 92.93 185.408 92.656 184.731C92.382 184.054 92.175 184.85 92.195 186.5ZM101.151 191.799C99.508 199.364 99.885 201.665 101.603 194.56C102.393 191.293 102.874 188.143 102.671 187.56C102.468 186.977 101.784 188.885 101.151 191.799ZM93.158 192C93.158 193.375 93.385 193.938 93.662 193.25C93.94 192.563 93.94 191.438 93.662 190.75C93.385 190.063 93.158 190.625 93.158 192ZM94.672 198.5C95.642 204.567 97.084 208.43 96.352 203C96.018 200.525 95.36 197.6 94.889 196.5C94.337 195.211 94.26 195.922 94.672 198.5ZM98.13 205.397C97.459 208.063 97.126 210.459 97.389 210.723C98.055 211.389 100.205 203.116 99.734 201.701C99.523 201.069 98.801 202.732 98.13 205.397ZM51.158 218C51.158 219.375 51.385 219.938 51.662 219.25C51.94 218.563 51.94 217.438 51.662 216.75C51.385 216.063 51.158 216.625 51.158 218ZM137.545 224.545C137.163 227.096 137.055 229.388 137.305 229.638C137.555 229.888 138.072 228.005 138.455 225.455C138.837 222.904 138.945 220.612 138.695 220.362C138.445 220.112 137.928 221.995 137.545 224.545ZM52.195 223.5C52.215 225.15 52.439 225.704 52.693 224.731C52.947 223.758 52.93 222.408 52.656 221.731C52.382 221.054 52.175 221.85 52.195 223.5ZM53.141 228.5C53.141 229.6 53.527 231.4 54 232.5L54.859 234.5V232.5C54.859 231.4 54.473 229.6 54 228.5L53.141 226.5V228.5ZM135.187 235.799C133.522 243.231 133.828 245.631 135.599 239.041C136.406 236.038 136.91 232.888 136.72 232.041C136.529 231.193 135.839 232.885 135.187 235.799ZM55.195 237.5C55.215 239.15 55.439 239.704 55.693 238.731C55.947 237.758 55.93 236.408 55.656 235.731C55.382 235.054 55.175 235.85 55.195 237.5ZM56 243C56 244.1 56.408 245 56.906 245C57.405 245 57.577 244.1 57.29 243C57.002 241.9 56.594 241 56.383 241C56.173 241 56 241.9 56 243ZM132.444 248.444C132.068 250.451 132.01 252.343 132.315 252.649C132.621 252.954 133.179 251.562 133.556 249.556C133.932 247.549 133.99 245.657 133.685 245.351C133.379 245.046 132.821 246.438 132.444 248.444ZM58.195 251.5C58.215 253.15 58.439 253.704 58.693 252.731C58.947 251.758 58.93 250.408 58.656 249.731C58.382 249.054 58.175 249.85 58.195 251.5ZM131.158 256C131.158 257.375 131.385 257.938 131.662 257.25C131.94 256.563 131.94 255.438 131.662 254.75C131.385 254.063 131.158 254.625 131.158 256ZM59.036 256.25C59.101 258.549 61.857 269.191 62.557 269.85C62.937 270.207 62.999 269.6 62.693 268.5C62.388 267.4 61.625 263.913 60.998 260.75C59.955 255.491 58.948 253.181 59.036 256.25ZM130.123 260.5C130.04 261.6 129.741 263.625 129.458 265L128.944 267.5L130.015 265.047C130.604 263.698 130.903 261.673 130.679 260.547C130.283 258.553 130.268 258.552 130.123 260.5ZM128.158 270C128.158 271.375 128.385 271.938 128.662 271.25C128.94 270.563 128.94 269.438 128.662 268.75C128.385 268.063 128.158 268.625 128.158 270ZM62.086 271.5C62.19 273.394 63.856 276.584 63.914 275C63.945 274.175 63.533 272.825 63 272C62.467 271.175 62.055 270.95 62.086 271.5ZM126.556 276.556C126.179 278.562 126.096 280.429 126.371 280.704C126.646 280.979 127.179 279.562 127.556 277.556C127.932 275.549 128.015 273.682 127.74 273.407C127.465 273.132 126.932 274.549 126.556 276.556ZM64.158 279C64.158 280.375 64.385 280.938 64.662 280.25C64.94 279.563 64.94 278.438 64.662 277.75C64.385 277.063 64.158 277.625 64.158 279ZM65.07 284.083C65.109 285.413 65.548 287.4 66.047 288.5C66.678 289.894 66.768 289.288 66.344 286.5C65.637 281.857 64.969 280.589 65.07 284.083ZM125.158 284C125.158 285.375 125.385 285.938 125.662 285.25C125.94 284.563 125.94 283.438 125.662 282.75C125.385 282.063 125.158 282.625 125.158 284ZM123.556 290.556C123.179 292.562 123.096 294.429 123.371 294.704C123.646 294.979 124.179 293.562 124.556 291.556C124.932 289.549 125.015 287.682 124.74 287.407C124.465 287.132 123.932 288.549 123.556 290.556ZM67.158 293C67.158 294.375 67.385 294.938 67.662 294.25C67.94 293.563 67.94 292.438 67.662 291.75C67.385 291.063 67.158 291.625 67.158 293ZM68.614 300.5C68.929 303.25 69.37 305.688 69.594 305.917C70.611 306.96 70.522 305.107 69.333 300.5L68.041 295.5L68.614 300.5ZM121.195 303.5C121.215 305.15 121.439 305.704 121.693 304.731C121.947 303.758 121.93 302.408 121.656 301.731C121.382 301.054 121.175 301.85 121.195 303.5ZM119.5 310C119.12 311.729 119.035 313.368 119.31 313.643C119.585 313.918 120.12 312.729 120.5 311C120.88 309.271 120.965 307.632 120.69 307.357C120.415 307.082 119.88 308.271 119.5 310ZM71.304 312.5L71.5 315.5L95.5 315.537L119.5 315.574L96.044 315.037L72.588 314.5L71.848 312C71.159 309.672 71.121 309.707 71.304 312.5Z" fill="#E26D2E"/>
</svg>
