<svg width="404" height="261" viewBox="0 0 404 261" fill="none" xmlns="http://www.w3.org/2000/svg">
<path fill-rule="evenodd" clip-rule="evenodd" d="M1 117.5V234H25H49V180.333C49 150.817 49.194 126.861 49.431 127.098C49.824 127.491 51.622 135.599 55.506 154.5C56.297 158.35 57.14 162.4 57.378 163.5C57.617 164.6 58.057 166.625 58.356 168C58.655 169.375 59.584 173.425 60.421 177C61.258 180.575 62.182 185.075 62.475 187C62.767 188.925 64.563 197.475 66.466 206C68.369 214.525 70.162 222.85 70.45 224.5C70.738 226.15 71.349 228.85 71.808 230.5L72.643 233.5L95.688 233.768L118.732 234.036L119.355 230.768C119.698 228.971 120.462 225.25 121.053 222.5C121.644 219.75 122.339 216.375 122.597 215C122.854 213.625 123.988 208.225 125.117 203C127.523 191.861 132.446 168.487 134.488 158.5C138.408 139.335 141.019 127.648 141.484 127.183C141.768 126.899 142 150.817 142 180.333V234H164.5C184.056 234 187 233.799 187 232.466C187 231.072 181.914 206.207 176.985 183.5C175.91 178.55 169.375 147.5 162.462 114.5C155.549 81.5 147.358 42.463 144.259 27.75L138.623 1H132.379C127.304 1 126.034 1.328 125.597 2.75C125.114 4.322 119.55 29.866 118.365 35.95C118.103 37.298 117.193 41.573 116.343 45.45C115.492 49.328 114.188 55.547 113.444 59.271C112.701 62.995 111.842 66.447 111.536 66.942C111.23 67.437 110.814 69.115 110.613 70.671C110.16 74.166 99.182 125.74 98.303 128.5C97.539 130.901 96.978 129.041 93.483 112.5C85.496 74.699 80.927 53.691 80.566 53.106C80.337 52.737 79.897 50.277 79.587 47.64C79.276 45.003 78.802 42.488 78.531 42.05C78.261 41.613 76.642 34.785 74.934 26.877C73.226 18.97 71.715 12.05 71.577 11.5C71.44 10.95 70.977 8.362 70.55 5.75L69.773 1H35.386H1V117.5Z" fill="#050505"/>
<path fill-rule="evenodd" clip-rule="evenodd" d="M0 117.517V235.035L24.75 234.767L49.5 234.5L50 183C50.275 154.675 50.201 130.375 49.836 129C49.471 127.625 49.133 150.688 49.086 180.25L49 234H25H1V117.513V1.026L35.75 0.75L70.5 0.473L35.25 0.237L0 0V117.517ZM125.079 1.75C125.126 2.795 125.361 2.997 125.662 2.25C125.99 1.438 128.348 1 132.395 1H138.623L144.259 27.75C147.358 42.463 155.549 81.5 162.462 114.5C169.375 147.5 175.91 178.55 176.985 183.5C181.914 206.207 187 231.072 187 232.466C187 233.799 184.056 234 164.5 234H142L141.937 180.25C141.878 130.824 141.498 123.356 139.605 134.5C139.119 137.363 139.216 138.074 139.948 137C140.65 135.969 140.974 151.063 140.985 185.259L141 235.019L190.742 234.759L240.485 234.5L241.758 228C243.594 218.635 247.893 197.777 250.416 186C251.3 181.875 252.656 175.125 253.43 171C254.204 166.875 255.782 159 256.936 153.5C258.091 148 260.161 137.875 261.537 131C264.16 117.894 265.828 110.516 266.738 108C267.401 106.166 267.551 106.787 274.088 138.5C276.922 152.25 279.798 166.2 280.479 169.5C281.159 172.8 283.095 182.25 284.78 190.5C286.465 198.75 288.125 206.85 288.468 208.5C288.811 210.15 289.529 213.75 290.063 216.5C290.597 219.25 291.451 223.3 291.961 225.5C292.47 227.7 293.148 230.745 293.467 232.266L294.046 235.033L320.733 234.766L347.419 234.5L348.204 231C349.933 223.299 352.258 212.131 353.513 205.5C354.242 201.65 355.091 197.825 355.4 197C355.709 196.175 356.613 191.9 357.41 187.5C358.206 183.1 360.287 172.975 362.035 165C363.782 157.025 365.805 147.575 366.531 144C367.257 140.425 370.168 126.475 373 113C375.832 99.525 378.764 85.575 379.515 82C380.267 78.425 381.573 72.35 382.418 68.5C383.264 64.65 384.866 56.775 385.978 51C387.091 45.225 388.652 37.575 389.447 34C393.185 17.197 396 3.338 396 1.733C396 0.0830017 394.326 -0.0169983 370.772 0.233002L345.545 0.5L344.374 7C343.731 10.575 342.448 17.325 341.525 22C340.601 26.675 339.233 33.65 338.485 37.5C337.736 41.35 336.381 48.325 335.472 53C334.564 57.675 332.993 66 331.981 71.5C330.97 77 329.47 84.875 328.648 89C327.827 93.125 326.394 100.325 325.463 105C324.532 109.675 323.548 114.963 323.276 116.75C322.684 120.641 321 121.097 321 117.366C321 115.917 320.558 113.105 320.018 111.116C319.478 109.127 318.106 102.325 316.97 96C313.266 75.393 310.904 62.714 308.49 50.5C307.186 43.9 305.164 33.325 303.997 27C302.829 20.675 301.227 12.256 300.437 8.292C299.647 4.328 299 0.84 299 0.542C299 0.244 285.745 0 269.545 0H240.091L239.445 3.75C239.089 5.813 238.127 10.875 237.307 15C236.486 19.125 235.418 24.75 234.934 27.5C234.45 30.25 233.36 36.1 232.512 40.5C230.953 48.598 227.91 64.7 225.521 77.5C224.802 81.35 223.491 88.213 222.607 92.75C221.723 97.287 220.334 104.666 219.521 109.146C217.179 122.044 216.838 122.438 215.317 114C211.073 90.46 209.848 83.774 208.54 77C207.744 72.875 206.362 65.675 205.469 61C203.647 51.466 201.93 42.541 199.503 30C198.599 25.325 197.216 17.675 196.431 13C195.647 8.325 194.77 3.487 194.483 2.25L193.962 0H159.481C127.279 0 125.005 0.116 125.079 1.75ZM70.158 4C70.158 5.375 70.385 5.938 70.662 5.25C70.94 4.563 70.94 3.438 70.662 2.75C70.385 2.063 70.158 2.625 70.158 4ZM122.5 12C122.116 14.274 122.011 16.345 122.268 16.601C122.524 16.857 123.034 15.192 123.4 12.9C123.766 10.608 123.871 8.538 123.632 8.299C123.394 8.06 122.884 9.726 122.5 12ZM72.399 15.451C72.967 17.899 73.604 19.729 73.815 19.518C74.462 18.872 72.872 11 72.095 11C71.695 11 71.831 13.003 72.399 15.451ZM120.098 22.98C119.494 25.795 119.045 28.864 119.1 29.799C119.156 30.735 119.832 28.614 120.603 25.086C121.375 21.559 121.824 18.49 121.601 18.267C121.378 18.044 120.701 20.165 120.098 22.98ZM74.106 22C74.094 22.825 74.736 25.975 75.533 29L76.981 34.5L76.409 29.618C75.837 24.726 74.146 19.135 74.106 22ZM77.141 36.5C77.141 37.6 77.527 39.4 78 40.5L78.859 42.5V40.5C78.859 39.4 78.473 37.6 78 36.5L77.141 34.5V36.5ZM116.539 39.592C115.6 45.847 116.376 46.118 117.635 39.974C118.195 37.238 118.333 35 117.94 35C117.548 35 116.917 37.066 116.539 39.592ZM79.668 49C80.619 54.253 82.09 57.304 81.355 52.5C81.019 50.3 80.359 47.825 79.889 47C79.37 46.088 79.283 46.873 79.668 49ZM114.72 47.332C114.324 48.339 114.029 50.139 114.063 51.332C114.124 53.389 114.177 53.375 115.101 51.062C115.636 49.722 115.932 47.922 115.758 47.062C115.497 45.777 115.313 45.825 114.72 47.332ZM112.091 59.955C111.345 63.318 110.98 66.314 111.28 66.614C111.947 67.28 114.292 56.375 113.799 54.898C113.606 54.318 112.837 56.593 112.091 59.955ZM82.158 59C82.158 60.375 82.385 60.938 82.662 60.25C82.94 59.563 82.94 58.438 82.662 57.75C82.385 57.063 82.158 57.625 82.158 59ZM83.158 64C83.158 65.375 83.385 65.938 83.662 65.25C83.94 64.563 83.94 63.438 83.662 62.75C83.385 62.063 83.158 62.625 83.158 64ZM85.218 72.5C85.228 73.6 85.58 75.85 86 77.5C86.686 80.195 86.765 80.246 86.782 78C86.792 76.625 86.44 74.375 86 73C85.373 71.041 85.203 70.933 85.218 72.5ZM109.624 72.539C109.281 73.432 109.039 74.914 109.086 75.832C109.133 76.749 109.568 76.173 110.053 74.55C110.996 71.394 110.662 69.832 109.624 72.539ZM87.106 82C87.094 82.825 87.736 85.975 88.533 89L89.981 94.5L89.409 89.618C88.837 84.726 87.146 79.135 87.106 82ZM107.158 84C107.158 85.375 107.385 85.938 107.662 85.25C107.94 84.563 107.94 83.438 107.662 82.75C107.385 82.063 107.158 82.625 107.158 84ZM106.158 89C106.158 90.375 106.385 90.938 106.662 90.25C106.94 89.563 106.94 88.438 106.662 87.75C106.385 87.063 106.158 87.625 106.158 89ZM90.141 96.5C90.141 97.6 90.527 99.4 91 100.5L91.859 102.5V100.5C91.859 99.4 91.473 97.6 91 96.5L90.141 94.5V96.5ZM103.5 100C103.116 102.274 103.011 104.345 103.268 104.601C103.524 104.857 104.034 103.192 104.4 100.9C104.766 98.608 104.871 96.538 104.632 96.299C104.394 96.06 103.884 97.726 103.5 100ZM92.195 105.5C92.215 107.15 92.439 107.704 92.693 106.731C92.947 105.758 92.93 104.408 92.656 103.731C92.382 103.054 92.175 103.85 92.195 105.5ZM101.151 110.799C99.508 118.364 99.885 120.665 101.603 113.56C102.393 110.293 102.874 107.143 102.671 106.56C102.468 105.977 101.784 107.885 101.151 110.799ZM93.158 111C93.158 112.375 93.385 112.938 93.662 112.25C93.94 111.563 93.94 110.438 93.662 109.75C93.385 109.063 93.158 109.625 93.158 111ZM94.672 117.5C95.642 123.567 97.084 127.43 96.352 122C96.018 119.525 95.36 116.6 94.889 115.5C94.337 114.211 94.26 114.922 94.672 117.5ZM98.13 124.397C97.459 127.063 97.126 129.459 97.389 129.723C98.055 130.389 100.205 122.116 99.734 120.701C99.523 120.069 98.801 121.732 98.13 124.397ZM51.158 137C51.158 138.375 51.385 138.938 51.662 138.25C51.94 137.563 51.94 136.438 51.662 135.75C51.385 135.063 51.158 135.625 51.158 137ZM137.545 143.545C137.163 146.096 137.055 148.388 137.305 148.638C137.555 148.888 138.072 147.005 138.455 144.455C138.837 141.904 138.945 139.612 138.695 139.362C138.445 139.112 137.928 140.995 137.545 143.545ZM52.195 142.5C52.215 144.15 52.439 144.704 52.693 143.731C52.947 142.758 52.93 141.408 52.656 140.731C52.382 140.054 52.175 140.85 52.195 142.5ZM53.141 147.5C53.141 148.6 53.527 150.4 54 151.5L54.859 153.5V151.5C54.859 150.4 54.473 148.6 54 147.5L53.141 145.5V147.5ZM135.187 154.799C133.522 162.231 133.828 164.631 135.599 158.041C136.406 155.038 136.91 151.888 136.72 151.041C136.529 150.193 135.839 151.885 135.187 154.799ZM55.195 156.5C55.215 158.15 55.439 158.704 55.693 157.731C55.947 156.758 55.93 155.408 55.656 154.731C55.382 154.054 55.175 154.85 55.195 156.5ZM56 162C56 163.1 56.408 164 56.906 164C57.405 164 57.577 163.1 57.29 162C57.002 160.9 56.594 160 56.383 160C56.173 160 56 160.9 56 162ZM132.444 167.444C132.068 169.451 132.01 171.343 132.315 171.649C132.621 171.954 133.179 170.562 133.556 168.556C133.932 166.549 133.99 164.657 133.685 164.351C133.379 164.046 132.821 165.438 132.444 167.444ZM58.195 170.5C58.215 172.15 58.439 172.704 58.693 171.731C58.947 170.758 58.93 169.408 58.656 168.731C58.382 168.054 58.175 168.85 58.195 170.5ZM131.158 175C131.158 176.375 131.385 176.938 131.662 176.25C131.94 175.563 131.94 174.438 131.662 173.75C131.385 173.063 131.158 173.625 131.158 175ZM59.036 175.25C59.101 177.549 61.857 188.191 62.557 188.85C62.937 189.207 62.999 188.6 62.693 187.5C62.388 186.4 61.625 182.913 60.998 179.75C59.955 174.491 58.948 172.181 59.036 175.25ZM130.123 179.5C130.04 180.6 129.741 182.625 129.458 184L128.944 186.5L130.015 184.047C130.604 182.698 130.903 180.673 130.679 179.547C130.283 177.553 130.268 177.552 130.123 179.5ZM128.158 189C128.158 190.375 128.385 190.938 128.662 190.25C128.94 189.563 128.94 188.438 128.662 187.75C128.385 187.063 128.158 187.625 128.158 189ZM62.086 190.5C62.19 192.394 63.856 195.584 63.914 194C63.945 193.175 63.533 191.825 63 191C62.467 190.175 62.055 189.95 62.086 190.5ZM126.556 195.556C126.179 197.562 126.096 199.429 126.371 199.704C126.646 199.979 127.179 198.562 127.556 196.556C127.932 194.549 128.015 192.682 127.74 192.407C127.465 192.132 126.932 193.549 126.556 195.556ZM64.158 198C64.158 199.375 64.385 199.938 64.662 199.25C64.94 198.563 64.94 197.438 64.662 196.75C64.385 196.063 64.158 196.625 64.158 198ZM65.07 203.083C65.109 204.413 65.548 206.4 66.047 207.5C66.678 208.894 66.768 208.288 66.344 205.5C65.637 200.857 64.969 199.589 65.07 203.083ZM125.158 203C125.158 204.375 125.385 204.938 125.662 204.25C125.94 203.563 125.94 202.438 125.662 201.75C125.385 201.063 125.158 201.625 125.158 203ZM123.556 209.556C123.179 211.562 123.096 213.429 123.371 213.704C123.646 213.979 124.179 212.562 124.556 210.556C124.932 208.549 125.015 206.682 124.74 206.407C124.465 206.132 123.932 207.549 123.556 209.556ZM67.158 212C67.158 213.375 67.385 213.938 67.662 213.25C67.94 212.563 67.94 211.438 67.662 210.75C67.385 210.063 67.158 210.625 67.158 212ZM68.614 219.5C68.929 222.25 69.37 224.688 69.594 224.917C70.611 225.96 70.522 224.107 69.333 219.5L68.041 214.5L68.614 219.5ZM121.195 222.5C121.215 224.15 121.439 224.704 121.693 223.731C121.947 222.758 121.93 221.408 121.656 220.731C121.382 220.054 121.175 220.85 121.195 222.5ZM119.5 229C119.12 230.729 119.035 232.368 119.31 232.643C119.585 232.918 120.12 231.729 120.5 230C120.88 228.271 120.965 226.632 120.69 226.357C120.415 226.082 119.88 227.271 119.5 229ZM71.304 231.5L71.5 234.5L95.5 234.537L119.5 234.574L96.044 234.037L72.588 233.5L71.848 231C71.159 228.672 71.121 228.707 71.304 231.5Z" fill="#E26D2E"/>
<circle cx="354.5" cy="211.5" r="42" fill="#25C316" stroke="white" stroke-width="15"/>
</svg>
